Coordinates
version=1
nRows=10
nColumns=22
inDegrees=yes

Units are S.I. units (second, meters, Newtons, ...)
If the header above contains a line with 'inDegrees', this indicates whether rotational values are in degrees (yes) or radians (no).

endheader
time	pelvis_tilt	pelvis_list	pelvis_rotation	pelvis_tx	pelvis_ty	pelvis_tz	hip_flexion_r	hip_adduction_r	hip_rotation_r	knee_angle_r	ankle_angle_r	subtalar_angle_r	hip_flexion_l	hip_adduction_l	hip_rotation_l	knee_angle_l	ankle_angle_l	subtalar_angle_l	lumbar_extension	lumbar_bending	lumbar_rotation
      4.06000000	     -0.38989819	     -0.65212659	    -90.49788331	      0.19379846	      0.91355945	      0.78257602	    -14.96394648	      1.86452054	     10.59206147	    -25.09541296	      2.18212053	     -1.53126577	     26.45597928	     -1.07228678	      1.29819129	    -28.40750797	      0.06580370	      0.09510818	     -1.58340026	     -4.18428455	      5.59196382
      4.07000000	     -0.10569610	     -0.76795982	    -90.94504576	      0.19527128	      0.91532872	      0.79185508	    -14.77202790	      1.28021067	     10.32449807	    -26.22536622	      0.43690370	     -0.93576019	     25.62666227	     -0.84193934	      0.68282743	    -28.43323531	      0.70759681	     -0.13440522	     -1.64786204	     -4.59554220	      5.87470769
      4.08000000	      0.14080813	     -0.88718366	    -91.45218433	      0.19657467	      0.91705305	      0.80079834	    -14.44999030	      0.70684327	     10.04663027	    -27.50443859	     -1.27399098	     -0.41551631	     24.75550176	     -0.67306085	     -0.00329208	    -28.35794260	      1.32376758	     -0.37565733	     -1.74473479	     -4.96037575	      6.17383801
      4.09000000	      0.36286300	     -1.00673246	    -92.00477445	      0.19773894	      0.91869177	      0.80940727	    -13.98270539	      0.13131335	      9.72198638	    -28.95493801	     -2.90252583	      0.05150021	     23.86942779	     -0.54432378	     -0.75259497	    -28.21839387	      1.92251127	     -0.60287079	     -1.86717138	     -5.29395078	      6.45788585
      4.10000000	      0.56523932	     -1.10113627	    -92.59242408	      0.19879625	      0.92018757	      0.81766682	    -13.31997499	     -0.44908421	      9.32665141	    -30.61293026	     -4.44164263	      0.43708753	     23.01078055	     -0.43717322	     -1.51319742	    -28.03367521	      2.47632201	     -0.76873083	     -1.98396605	     -5.60059322	      6.72383189
      4.11000000	      0.76986757	     -1.19564155	    -93.19089438	      0.19980869	      0.92154168	      0.82559684	    -12.48781906	     -1.05804999	      8.83027793	    -32.48198245	     -5.87322838	      0.85296820	     22.17756794	     -0.31683757	     -2.27923288	    -27.84672587	      3.04620200	     -0.93730043	     -2.12536858	     -5.90467172	      6.92159138
      4.12000000	      0.98223668	     -1.27780992	    -93.80004195	      0.20077749	      0.92272648	      0.83318312	    -11.45490031	     -1.70348678	      8.22814465	    -34.58056095	     -7.19970939	      1.30092985	     21.39187464	     -0.17405055	     -3.03098183	    -27.66642615	      3.58692540	     -1.10846786	     -2.27476036	     -6.21458008	      7.06677098
      4.13000000	      1.20842956	     -1.32887942	    -94.40112106	      0.20175839	      0.92369050	      0.84043301	    -10.20394732	     -2.38981545	      7.52977483	    -36.89929530	     -8.42999625	      1.83201656	     20.69207192	      0.00498403	     -3.75252291	    -27.52116631	      4.14339844	     -1.33673047	     -2.40966304	     -6.53074586	      7.12953111
      4.14000000	      1.45856437	     -1.39176806	    -95.00371737	      0.20272393	      0.92454439	      0.84737724	     -8.79434409	     -3.14039805	      6.74752213	    -39.39356274	     -9.62886813	      2.25244717	     20.00204330	      0.23405726	     -4.42974763	    -27.35559042	      4.59484681	     -1.44411460	     -2.57399745	     -6.87545786	      7.16107539
      4.15000000	      1.73656146	     -1.42705672	    -95.57670408	      0.20374045	      0.92518141	      0.85402302	     -7.20900975	     -3.94338955	      5.93220365	    -42.02487521	    -10.72160702	      2.71829480	     19.40138588	      0.51881023	     -5.06833964	    -27.23408927	      5.06316313	     -1.61842637	     -2.72189679	     -7.24338387	      7.07872776
